PathFileType	4	(X/Y/Z)	C:/Users/opensim2020/Desktop/walking_exp_matlab/subject01_walking09_straight_04.trc																																																																																																																															
DataRate	CameraRate	NumFrames	NumMarkers	Units	OrigDataRate	OrigDataStartFrame	OrigNumFrames																																																																																																																											
100	100	4	43	mm	100	3996	292																																																																																																																											
Frame#	Time	LFHD			RFHD			LBHD			RBHD			C7			T10			CLAV			STRN			RBAK			LSHO			LUPA			LELB			LFRM			LWRA			LWRB			LFIN			RSHO			RUPA			RELB			RFRM			RWRA			RWRB			RFIN			LASI			RASI			LPSI			RPSI			LTHI			LKNE			LTIB			LANK			LHEE			LTOE			RTHI			RKNE			RTIB			RANK			RHEE			RTOE			*39			*40			*41			*42		
		X1	Y1	Z1	X2	Y2	Z2	X3	Y3	Z3	X4	Y4	Z4	X5	Y5	Z5	X6	Y6	Z6	X7	Y7	Z7	X8	Y8	Z8	X9	Y9	Z9	X10	Y10	Z10	X11	Y11	Z11	X12	Y12	Z12	X13	Y13	Z13	X14	Y14	Z14	X15	Y15	Z15	X16	Y16	Z16	X17	Y17	Z17	X18	Y18	Z18	X19	Y19	Z19	X20	Y20	Z20	X21	Y21	Z21	X22	Y22	Z22	X23	Y23	Z23	X24	Y24	Z24	X25	Y25	Z25	X26	Y26	Z26	X27	Y27	Z27	X28	Y28	Z28	X29	Y29	Z29	X30	Y30	Z30	X31	Y31	Z31	X32	Y32	Z32	X33	Y33	Z33	X34	Y34	Z34	X35	Y35	Z35	X36	Y36	Z36	X37	Y37	Z37	X38	Y38	Z38	X39	Y39	Z39	X40	Y40	Z40	X41	Y41	Z41	X42	Y42	Z42	X43	Y43	Z43
																																																																																																																																		
110	1.09	-423.50113	1669.24268	-1456.98279	-400.23428	1673.78223	-1346.02063	-543.2287	1638.07739	-1439.10583	-521.71344	1641.9646	-1320.38696	-591.3811	1436.54932	-1390.89465	-627.27179	1143.23523	-1382.49182	-447.77493	1369.30652	-1399.2998	-403.94788	1215.33423	-1406.24939	-639.82037	1241.43481	-1307.16565	-519.55609	1398.60962	-1556.5199	-562.68518	1216.19116	-1637.96509	-581.74957	1067.00098	-1639.26477	-551.07629	958.3432	-1668.23608	-478.90857	838.64734	-1653.80261	-534.5462	837.27289	-1677.71399	-488.50565	766.92261	-1691.92017	-500.98624	1398.09546	-1244.57239	-539.88373	1195.63672	-1136.49915	-527.54486	1071.1405	-1130.77356	-480.09305	959.93182	-1102.77014	-383.6019	857.28961	-1129.30701	-422.13507	852.5788	-1086.04712	-372.54053	782.07306	-1089.29883	-458.19092	940.31952	-1500.73975	-454.10651	933.00049	-1283.92419	-642.89435	949.0141	-1447.4635	-639.22559	950.60474	-1302.98645	-403.81497	627.87506	-1577.79553	-378.13055	495.17368	-1564.28735	-442.29175	317.60004	-1567.51477	-477.55301	100.89994	-1515.13293	-509.77957	70.2975	-1451.12244	-344.75034	56.68391	-1549.31226	-523.54913	599.40674	-1245.68994	-526.81525	441.39804	-1277.58215	-593.39075	277.39261	-1275.19495	-639.64709	78.54262	-1334.29053	-691.80225	44.59981	-1383.59302	-500.79202	36.3103	-1339.0791	-409.62769	1708.4696	-1367.69287	-1972.93018	1023.92303	3102.04907	-2012.54004	1021.96619	3140.65576	NaN	NaN	NaN
111	1.1	-416.99149	1668.63245	-1457.55798	-393.54639	1673.21301	-1346.6593	-536.71906	1637.57935	-1439.46326	-514.91974	1641.50366	-1320.75574	-585.02283	1436.1803	-1390.9585	-621.39282	1142.96252	-1382.71582	-441.57935	1368.6842	-1399.60669	-398.07922	1214.58521	-1406.32837	-633.75763	1241.30322	-1307.08521	-513.50311	1398.1062	-1556.7583	-557.51202	1215.71411	-1637.87061	-576.99774	1066.58728	-1638.88196	-546.95624	957.73083	-1667.8457	-475.33871	837.6795	-1653.54834	-531.17542	836.66681	-1677.32263	-485.64056	766.14832	-1691.69409	-494.42468	1397.64441	-1244.80371	-532.99847	1195.39697	-1136.43542	-520.73779	1070.81506	-1130.58472	-472.86301	959.81531	-1102.64844	-376.31351	857.45044	-1129.43823	-414.414	852.62476	-1085.83691	-364.5654	782.45166	-1089.2771	-452.20682	939.98883	-1500.59729	-448.8454	932.61133	-1283.75012	-637.10895	948.51569	-1447.9613	-633.91534	950.10876	-1303.552	-398.41309	627.25232	-1577.71082	-371.82623	494.65802	-1563.62402	-429.30499	315.11176	-1567.65771	-454.91089	96.30866	-1516.15967	-486.98328	64.94501	-1452.91211	-319.89801	57.65747	-1548.97742	-519.8349	599.04578	-1245.74402	-524.57446	441.03955	-1277.58728	-592.14197	277.61163	-1275.28674	-639.43024	78.8369	-1334.33923	-691.60742	45.12735	-1383.77246	-500.74097	36.30515	-1339.07581	-402.95651	1707.90967	-1368.35645	-1973.17249	1023.51068	3101.81567	-2012.4718	1022.02869	3140.6626	NaN	NaN	NaN
112	1.11	-410.55048	1667.91919	-1458.19153	-386.8735	1672.64734	-1347.33301	-530.237	1637.03992	-1439.88916	-508.26993	1641.0697	-1321.16272	-578.6994	1435.80554	-1391.14966	-615.53906	1142.62732	-1383.052	-435.40466	1368.06128	-1399.8866	-391.9989	1213.89502	-1406.47729	-627.7121	1241.10278	-1307.07788	-507.3848	1397.49561	-1557.03381	-552.17792	1215.15576	-1637.8396	-572.14618	1066.12427	-1638.60425	-542.73456	957.09479	-1667.51135	-471.66937	836.74451	-1653.38013	-527.58734	835.94794	-1676.93176	-482.28375	765.06573	-1691.25525	-487.95856	1397.07471	-1245.10742	-526.104	1194.99841	-1136.33057	-513.91833	1070.41626	-1130.62585	-465.63626	959.62158	-1102.56628	-368.43555	857.66205	-1129.40137	-406.82672	852.65173	-1085.90503	-356.67346	782.60742	-1089.3075	-446.09238	939.70117	-1500.66516	-443.51886	932.12671	-1283.65405	-631.22327	948.01654	-1448.53613	-628.5813	949.62286	-1304.12415	-393.14578	626.39478	-1577.57043	-365.87918	494.078	-1563.08997	-416.49979	312.73038	-1567.88123	-432.9263	92.63215	-1517.57104	-463.89575	59.59563	-1454.54846	-295.69098	59.39813	-1548.86572	-516.28516	598.73645	-1245.87756	-522.42474	440.77386	-1277.54675	-590.92682	277.6684	-1275.28564	-639.16467	79.12505	-1334.48608	-691.48633	45.63882	-1383.91772	-500.67819	36.25277	-1339.00989	-396.3667	1707.30603	-1369.0426	-1973.00623	1023.78461	3101.90942	-2012.47424	1021.92206	3140.82397	NaN	NaN	NaN
113	1.12	-403.99698	1667.19055	-1458.9115	-380.26297	1671.86133	-1348.02319	-523.74573	1636.47546	-1440.39612	-501.58417	1640.56653	-1321.71899	-572.39294	1435.35437	-1391.4624	-609.55518	1142.21667	-1383.49268	-429.16098	1367.42957	-1400.34314	-386.21295	1213.13367	-1406.69226	-621.66058	1240.85876	-1307.22998	-501.24057	1396.89014	-1557.40308	-546.82404	1214.47607	-1637.80017	-567.13715	1065.59619	-1638.41003	-538.35852	956.42944	-1667.33545	-467.80695	835.7204	-1653.25183	-523.79425	835.20746	-1676.65881	-478.806	764.08221	-1691.01868	-481.42645	1396.53857	-1245.65039	-519.10846	1194.64929	-1136.38538	-507.10394	1070.03418	-1130.58228	-458.37863	959.28394	-1102.61829	-360.96527	857.6955	-1129.52661	-399.19971	852.52997	-1085.96326	-348.82779	782.72284	-1089.47571	-439.89871	939.17322	-1500.63721	-438.11224	931.69971	-1283.64502	-625.24866	947.4516	-1449.14331	-623.08069	949.14178	-1304.81421	-388.16571	625.26849	-1577.49573	-360.13327	493.11847	-1562.4082	-403.76999	310.41101	-1568.15283	-411.20544	89.35786	-1519.09998	-441.42001	54.82455	-1456.05652	-272.31033	61.81157	-1549.00623	-512.64337	598.49139	-1246.04395	-520.77368	440.59354	-1278.05457	-589.57141	277.83942	-1275.42078	-638.87781	79.47224	-1334.38623	-691.3399	46.19461	-1384.05933	-500.6131	36.26883	-1338.98083	-389.63916	1706.54138	-1369.74255	-1973.08752	1023.4422	3101.90723	-2012.47437	1021.97076	3140.60352	NaN	NaN	NaN
